# xmcd CD database file
#
# Track frame offsets:
#	150
#	27393
#	54098
#	95509
#	136534
#	166596
#	197961
#	229085
#	274913
#
# Disc length: 4077 seconds
#
# Revision: 0
# Processed by: cddbd v1.5.2PL0 Copyright (c) Steve Scherf et al.
# Submitted via: CDex 1.99
#
DISCID=6d0feb09
DTITLE=The Bassface Swing Trio - The Monday Session
DYEAR=2014
DGENRE=Jazz
TTITLE0=Cherokee
TTITLE1=The Nearness of You
TTITLE2=Stompin' At the Savoy
TTITLE3=Secret Love
TTITLE4=Emily
TTITLE5=Tangerine
TTITLE6=Move
TTITLE7=Samba de Orfeo
TTITLE8=Voyage
EXTD=YEAR: 2014
EXTT0=
EXTT1=
EXTT2=
EXTT3=
EXTT4=
EXTT5=
EXTT6=
EXTT7=
EXTT8=
PLAYORDER=
